<svg xmlns="http://www.w3.org/2000/svg" version="1.1" xmlns:xlink="http://www.w3.org/1999/xlink" xmlns:svgjs="http://svgjs.com/svgjs" width="1980" height="1080" preserveAspectRatio="none" viewBox="0 0 1980 1080"><g mask="url(&quot;#SvgjsMask1019&quot;)" fill="none"><rect width="1980" height="1080" x="0" y="0" fill="rgba(111, 115, 119, 1)"></rect><path d="M0,679.665C127.318,663.54,242.496,614.084,355.198,552.699C476.046,486.877,615.717,432.301,678.744,309.972C742.56,186.111,730.385,34.326,691.164,-99.374C654.874,-223.082,549.446,-305.626,468.679,-406.112C384.291,-511.103,324.759,-638.477,206.305,-702.609C73.373,-774.579,-84.744,-825.108,-230.375,-784.584C-376.513,-743.918,-477.848,-613.491,-563.606,-488.368C-642.633,-373.066,-691.617,-240.111,-699.219,-100.533C-706.407,31.441,-651.581,152.626,-605.262,276.414C-555.375,409.737,-536.61,571.717,-418.144,650.644C-299.466,729.712,-141.475,697.583,0,679.665" fill="#595c5f"></path><path d="M1980 2046.2849999999999C2160.0389999999998 2046.836 2338.143 1962.484 2465.0950000000003 1834.8220000000001 2581.67 1717.596 2563.625 1527.981 2640.809 1381.781 2724.8869999999997 1222.523 2930.881 1122.535 2936.17 942.524 2941.477 761.902 2793.798 613.4739999999999 2667.1710000000003 484.563 2546.157 361.365 2399.381 263.63 2231.123 224.755 2068.405 187.15999999999997 1894.315 201.471 1742.4279999999999 270.905 1601.04 335.539 1534.774 489.76599999999996 1420.601 595.278 1287.691 718.106 1028.038 760.886 1016.778 941.51 1005.189 1127.415 1284.711 1193.204 1373.107 1357.159 1452.312 1504.066 1386.505 1706.607 1496.81 1831.858 1615.6770000000001 1966.8310000000001 1800.148 2045.734 1980 2046.2849999999999" fill="#868a8e"></path></g><defs><mask id="SvgjsMask1019"><rect width="1980" height="1080" fill="#ffffff"></rect></mask></defs></svg>